PathFileType	4	(x/y/z)	S04_PSF_T12.trc
DataRate	CameraRate	NumFrames	NumMarkers	Units	OrigDataRate	OrigDataStartFrame	OrigNumFrames
240	240	5	51	mm	240	160	426
Frame#	Time	Sternum			R.Acromium			L.Acromium			Top.Head			R.ASIS			L.ASIS			R.PSIS			L.PSIS			R.Great.Tro			L.Great.Tro			R.Iliac.Crest			L.Iliac.Crest			V.Sacral			R.Thigh.Upper.Post			R.Thigh.Lower.Ant			R.Thigh.Lower.Post			R.Thigh.Upper.Ant			R.Knee.Lat			R.Knee.Med			R.Shank.Upper.Post			R.Shank.Lower.Ant			R.Shank.Lower.Post			R.Shank.Upper.Ant			R.Ankle.Lat			R.Ankle.Med			R.Heel.Upper			R.Heel.Med			R.Heel.Lat			R.Toe.Lat			R.Toe.Med			R.Toe.Tip			L.Thigh.Upper.Post			L.Thigh.Lower.Ant			L.Thigh.Lower.Post			L.Thigh.Upper.Ant			L.Knee.Lat			L.Knee.Med			L.Shank.Upper.Post			L.Shank.Lower.Ant			L.Shank.Lower.Post			L.Shank.Upper.Ant			L.Ankle.Lat			L.Ankle.Med			L.Heel.Upper			L.Heel.Med			L.Heel.Lat			L.Toe.Lat			L.Toe.Med			L.Toe.Tip			Cervical.Spine			Back			
		X1	Y1	Z1	X2	Y2	Z2	X3	Y3	Z3	X4	Y4	Z4	X5	Y5	Z5	X6	Y6	Z6	X7	Y7	Z7	X8	Y8	Z8	X9	Y9	Z9	X10	Y10	Z10	X11	Y11	Z11	X12	Y12	Z12	X13	Y13	Z13	X14	Y14	Z14	X15	Y15	Z15	X16	Y16	Z16	X17	Y17	Z17	X18	Y18	Z18	X19	Y19	Z19	X20	Y20	Z20	X21	Y21	Z21	X22	Y22	Z22	X23	Y23	Z23	X24	Y24	Z24	X25	Y25	Z25	X26	Y26	Z26	X27	Y27	Z27	X28	Y28	Z28	X29	Y29	Z29	X30	Y30	Z30	X31	Y31	Z31	X32	Y32	Z32	X33	Y33	Z33	X34	Y34	Z34	X35	Y35	Z35	X36	Y36	Z36	X37	Y37	Z37	X38	Y38	Z38	X39	Y39	Z39	X40	Y40	Z40	X41	Y41	Z41	X42	Y42	Z42	X43	Y43	Z43	X44	Y44	Z44	X45	Y45	Z45	X46	Y46	Z46	X47	Y47	Z47	X48	Y48	Z48	X49	Y49	Z49	X50	Y50	Z50	X51	Y51	Z51	

160	0.6625	-592.16	1251.4	253.74	-741.53	1472.7	423.76	-721.37	1461.1	73.349	-718.48	1801.4	234.22	-606.37	971.5	372.19	-626.07	974.43	124.36	-827.63	999.95	293.33	-823.64	1003.6	212.8	-678.63	895.06	446.32	-757.97	896.36	70.243	-697.79	1057	424.21	-724.03	1059.9	87.451	-847.04	960.35	254.48	-595.57	648.4	427.08	-499.91	598.91	382.76	-564.72	564.33	408.52	-528.25	703.45	408.31	-515.7	512.28	393.58	-552.64	496.41	272.57	-535.91	275.16	399.11	-459.55	213.7	349.11	-522.48	207.04	384.66	-474.55	281.7	372.97	-491.28	97.949	361.25	-475.6	117.13	271.92	-549.01	66.72	303.29	-535.83	39.106	271.97	-541.88	33.608	336.39	-373.92	51.193	383.4	-339.7	65.415	268.78	-281.52	96.595	316.11	-814.38	673.32	81.689	-752.45	564.19	71.489	-820.45	584.01	87.534	-750.75	654.6	63.326	-810.78	483.87	81.653	-792.66	459.92	204.34	-991.11	401.61	93.482	-997.99	292.13	86.545	-1036.2	338.96	99.897	-948.51	353.51	79.374	-1114.1	187.57	110.62	-1097	194.09	200.7	-1185.1	216.91	158.33	-1195.3	198.31	195.2	-1203.3	193.32	133.66	-1083.2	61.295	97.252	-1047.4	54.437	211.38	-1002.4	39.066	163.32	-783.73	1518.9	249.39	-853.58	1259.8	223.86
161	0.66667	-586.06	1251.9	254.4	-735.66	1473	424.53	-715.77	1461.5	74.112	-712.99	1801.7	234.96	-600.33	972.02	373.01	-620.06	974.51	125.23	-821.65	1000.3	293.76	-817.55	1003.6	213.21	-672.73	895.64	447.01	-751.37	895.93	70.963	-691.73	1057.3	424.85	-717.68	1060.1	88.089	-841.02	960.56	255	-589.67	648.88	427.68	-494.14	599.26	383.25	-558.95	564.78	409.1	-522.28	703.83	408.85	-510.2	512.4	393.96	-547.34	496.86	273.02	-532.43	275.4	399.66	-456.97	213.17	349.25	-519.77	207.14	385.12	-471.16	281.3	373.14	-490.05	97.741	361.49	-474.27	116.88	272.2	-548.37	67.167	303.54	-535.54	39.513	272.14	-541.55	33.893	336.53	-373.18	49.638	383.42	-338.93	63.613	268.74	-280.23	93.893	316.04	-805.82	672	81.922	-742.92	563.48	71.086	-811.04	582.61	87.511	-742.07	653.93	63.254	-800.33	482.91	81.29	-781.64	458.44	204.02	-981.21	403.35	93.421	-990.19	294.04	86.242	-1027.3	341.37	99.803	-939.44	354.63	79.155	-1107.6	191.52	110.15	-1090	197.48	200.2	-1177.3	223.18	158.03	-1188.1	205.07	195.04	-1196.4	200.12	133.45	-1080.7	63.907	97.063	-1044.7	56.329	211.01	-1000.8	38.861	162.88	-778.06	1519.1	250.22	-847.51	1259.9	224.66
162	0.67083	-580	1252.4	255.03	-729.79	1473.2	425.28	-710.16	1461.9	74.86	-707.51	1802.1	235.69	-594.37	972.56	373.81	-614.09	974.64	126.09	-815.72	1000.6	294.18	-811.54	1003.8	213.62	-666.91	896.23	447.68	-744.84	895.54	71.674	-685.74	1057.7	425.47	-711.4	1060.3	88.716	-835.06	960.8	255.52	-583.9	649.35	428.28	-488.49	599.57	383.76	-553.33	565.2	409.67	-516.42	704.19	409.42	-504.83	512.51	394.35	-542.12	497.32	273.45	-529.08	275.64	400.19	-454.49	212.67	349.37	-517.18	207.25	385.54	-467.89	280.93	373.31	-488.91	97.57	361.71	-473.04	116.67	272.45	-547.79	67.581	303.77	-535.26	39.897	272.3	-541.24	34.168	336.66	-372.51	48.221	383.44	-338.22	61.936	268.69	-279.05	91.356	315.96	-797.22	670.7	82.157	-733.31	562.83	70.701	-801.56	581.24	87.504	-733.35	653.31	63.177	-789.74	481.98	80.954	-770.5	457.05	203.76	-971.1	405.12	93.368	-982.09	295.99	85.964	-1018.2	343.83	99.718	-930.16	355.79	78.962	-1100.8	195.57	109.7	-1082.7	200.94	199.72	-1169.2	229.48	157.74	-1180.6	211.83	194.88	-1189.1	206.96	133.25	-1077.9	66.744	96.829	-1041.7	58.402	210.57	-998.85	38.732	162.33	-772.39	1519.4	251.04	-841.48	1260	225.43
163	0.675	-573.99	1253	255.65	-723.91	1473.6	426.01	-704.57	1462.3	75.591	-702.06	1802.6	236.42	-588.48	973.1	374.61	-608.18	974.81	126.92	-809.86	1001	294.59	-805.59	1003.9	214.02	-661.18	896.83	448.34	-738.38	895.18	72.373	-679.81	1058.1	426.07	-705.21	1060.6	89.332	-829.18	961.09	256.03	-578.26	649.8	428.88	-482.98	599.84	384.27	-547.87	565.6	410.22	-510.67	704.5	410.02	-499.6	512.59	394.74	-537	497.78	273.85	-525.86	275.88	400.68	-452.12	212.18	349.48	-514.7	207.38	385.92	-464.75	280.56	373.46	-487.83	97.435	361.9	-471.89	116.5	272.67	-547.26	67.964	303.98	-535.01	40.256	272.45	-540.94	34.43	336.78	-371.91	46.942	383.47	-337.58	60.376	268.63	-277.97	88.981	315.87	-788.57	669.44	82.398	-723.64	562.24	70.337	-792.01	579.92	87.523	-724.59	652.74	63.098	-779.04	481.12	80.646	-759.28	455.78	203.55	-960.79	406.93	93.33	-973.69	297.99	85.714	-1008.8	346.34	99.646	-920.68	357	78.799	-1093.8	199.71	109.27	-1075.2	204.45	199.26	-1160.9	235.76	157.48	-1172.8	218.54	194.73	-1181.5	213.8	133.07	-1074.8	69.803	96.547	-1038.4	60.645	210.07	-996.62	38.7	161.69	-766.72	1519.7	251.85	-835.5	1260.3	226.2
164	0.67917	-568.03	1253.5	256.24	-718.03	1473.9	426.72	-698.99	1462.8	76.305	-696.61	1803	237.14	-582.65	973.66	375.37	-602.31	975.05	127.72	-804.05	1001.5	294.99	-799.71	1004.1	214.41	-655.52	897.42	448.98	-731.98	894.87	73.06	-673.94	1058.5	426.66	-699.11	1060.9	89.937	-823.37	961.41	256.53	-572.77	650.22	429.47	-477.61	600.06	384.78	-542.56	565.96	410.74	-505.04	704.77	410.63	-494.53	512.65	395.13	-531.99	498.23	274.22	-522.77	276.12	401.11	-449.85	211.72	349.56	-512.34	207.52	386.26	-461.73	280.2	373.59	-486.84	97.333	362.05	-470.82	116.35	272.86	-546.79	68.316	304.16	-534.78	40.586	272.58	-540.67	34.682	336.89	-371.36	45.797	383.5	-337	58.923	268.55	-276.99	86.761	315.77	-779.9	668.23	82.648	-713.92	561.73	69.999	-782.41	578.66	87.573	-715.8	652.23	63.02	-768.23	480.34	80.367	-747.99	454.62	203.4	-950.3	408.78	93.313	-964.98	300.02	85.495	-999.26	348.89	99.596	-911.03	358.27	78.667	-1086.5	203.94	108.88	-1067.5	208	198.83	-1152.2	242	157.27	-1164.7	225.18	194.59	-1173.7	220.61	132.92	-1071.4	73.074	96.215	-1034.7	63.044	209.5	-994.04	38.788	160.93	-761.06	1520.1	252.63	-829.56	1260.6	226.95
